<?xml version="1.0" encoding="utf-8"?>
<!-- Generator: Adobe Illustrator 24.0.2, SVG Export Plug-In . SVG Version: 6.00 Build 0)  -->
<svg version="1.1" id="Layer_1" xmlns="http://www.w3.org/2000/svg" xmlns:xlink="http://www.w3.org/1999/xlink" x="0px" y="0px"
	 viewBox="0 0 972 668" style="enable-background:new 0 0 972 668;" xml:space="preserve">
<style type="text/css">
	.st0{fill:#FFFDFD;}
</style>
<g>
	<path class="st0" d="M451.3,317.7l6-11c-1.5,0,9.1-10.4,7.6-10.3c13-16.5,14.4-39.4,3.5-57.4c-7.2-11.6-13.2-14.5-23.3-15.1
		l0.2-0.2h-8l-79,90h-15v8h8l-65,74h8l65-74h63c-12.8,19.6-12.2,46.3,2.2,65.2c12.6,16.6,26.2,12.8,45.2,12.8
		C437.9,382.2,438.5,346.5,451.3,317.7z M428.3,313.7h-62l77.2-87.9C464.2,235,468,262,456.8,281c-5.6,9.6-14.9,17.6-22.5,25.6
		C434.6,306.7,430.4,311.2,428.3,313.7z"/>
	<path class="st0" d="M555.3,226.7c5.5,0,12.4,3.8,15.3,8.5l8.3,13.1c2.9,4.6,5.3,4,5.3-1.5v-47c0-5.5-3.8-7.6-8.4-4.7l-0.5,0.3
		c-5.6,3.2-12,5.1-18.5,5.3H503v-11h-8v11h-49.8c-5.5,0-6.2,2.4-1.6,5.4l23.2,15.1c5.6,3.3,11.9,5.2,18.4,5.5h9.8v46.1
		c-4.9,0.2-9.2,3.1-11.2,7.6l-12.6,22.8c5-5.4,13.4-5.8,18.8-0.9c0.3,0.3,0.6,0.6,0.9,0.9c0.6,1.2,1.3,2.3,2.2,3.3
		c0.6,0.6,1.2,1.2,1.9,1.7v55.5h-30.7c-5.5,0-7.3,3.6-3.9,7.9l7.8,10.1c3.4,4.4,10.6,7.9,16.1,7.9H495v37.1
		c-4.9,0.2-9.2,3.1-11.2,7.6l-12.6,22.8c5-5.4,13.4-5.8,18.8-0.9c0.3,0.3,0.6,0.6,0.9,0.9c0.6,1.2,1.3,2.3,2.2,3.3
		c0.6,0.6,1.2,1.2,1.9,1.7v52.5h8v-50.2c4.9-0.2,9.2-3.1,11.2-7.6l12.6-22.8c-5,5.4-13.4,5.8-18.8,0.9c-0.3-0.3-0.6-0.6-0.9-0.9
		c-0.6-1.2-1.3-2.3-2.2-3.3c-0.6-0.6-1.2-1.2-1.9-1.7v-39.5h53.8c6.5,0.3,12.8,2.1,18.5,5.3l0.5,0.3c4.7,2.9,8.4,0.8,8.4-4.7v-47
		c0-5.5-2.4-6.2-5.3-1.5l-8.3,13.1c-2.9,4.6-9.8,8.5-15.3,8.5H503v-53.2c4.9-0.2,9.2-3.1,11.2-7.6l12.6-22.8
		c-5,5.4-13.4,5.8-18.8,0.9c-0.3-0.3-0.6-0.6-0.9-0.9c-0.6-1.2-1.3-2.3-2.2-3.3c-0.6-0.6-1.2-1.2-1.9-1.7v-48.5h52.3V226.7z"/>
	<path class="st0" d="M452.3,317.7l6-11c-1.5,0,9.1-10.4,7.6-10.3c13-16.5,14.4-39.4,3.5-57.4c-8.8-14.3-15.8-15.3-30.9-15.3
		c25.9,6.4,31.5,36.6,19.3,57.4c-5.6,9.6-14.9,17.6-22.5,25.6c0.5,0-7.6,8.5-7.1,8.5c-17.7,19.9-18.8,50.6-2.8,71.8
		c12.6,16.6,26.2,12.8,45.3,12.8C438.9,382.2,439.5,346.5,452.3,317.7z"/>
</g>
<g>
	<path class="st0" d="M631.6,328c0-40.6-14.4-77.8-38.3-106.9v16.6c17.9,25.7,28.3,56.8,28.3,90.4c0,70.4-46,130.2-109.6,150.9v10.5
		C581.2,468.3,631.6,403.9,631.6,328z"/>
	<path class="st0" d="M463,486.7c-68,0-126.1-43-148.6-103.2l-7.4,8.4c25.2,61.4,85.7,104.7,156.1,104.7c7.8,0,15.5-0.5,23.1-1.6
		v-10C478.5,486.1,470.8,486.7,463,486.7z"/>
	<path class="st0" d="M304.3,328c0-87.5,71.2-158.7,158.7-158.7c27.5,0,53.3,7,75.8,19.3h17.9c0.4,0,0.7-0.1,1.1-0.1
		c-27-18.4-59.7-29.2-94.8-29.2c-93,0-168.7,75.7-168.7,168.7c0,12.8,1.4,25.2,4.1,37.2l8.3-9.4C305.1,346.7,304.3,337.5,304.3,328z
		"/>
</g>
</svg>
